<svg width="71" height="61" viewBox="0 0 71 61" fill="none" xmlns="http://www.w3.org/2000/svg">
<path fill-rule="evenodd" clip-rule="evenodd" d="M43.1696 0C62.1428 0 71 20.7808 71 39.6912C71 53.3511 56.8748 61 43.1696 61C24.3567 61 0 58.442 0 39.6912C0 16.8307 20.2333 0 43.1696 0Z" fill="#FD8584"/>
<circle cx="25.5" cy="21.5" r="3.5" fill="black"/>
<circle cx="46.5" cy="21.5" r="3.5" fill="black"/>
<path d="M39.7932 20.5449L50.7932 15.5449" stroke="black" stroke-linecap="round"/>
<path d="M22.2429 15.563L31.2429 20.563" stroke="black" stroke-linecap="round"/>
<path d="M36.7122 33.3054C36.5348 33.1565 36.3112 33.0738 36.0796 33.0714C35.848 33.0691 35.6227 33.1472 35.4423 33.2924L29.3934 38.061C29.2898 38.1425 29.2034 38.2436 29.139 38.3586C29.0747 38.4736 29.0337 38.6002 29.0184 38.7311C29.0032 38.8619 29.0139 38.9946 29.05 39.1213C29.0862 39.248 29.147 39.3663 29.229 39.4694C29.3105 39.573 29.4116 39.6594 29.5266 39.7238C29.6416 39.7881 29.7682 39.8291 29.8991 39.8444C30.0299 39.8597 30.1625 39.8489 30.2893 39.8128C30.416 39.7766 30.5343 39.7158 30.6374 39.6338L36.0513 35.3587L41.3653 39.8931C41.5678 40.065 41.8303 40.1493 42.0949 40.1276C42.3596 40.1059 42.6048 39.98 42.7766 39.7775C42.9484 39.575 43.0327 39.3126 43.0111 39.048C42.9894 38.7833 42.8634 38.5381 42.661 38.3663L36.7122 33.3054Z" fill="black"/>
</svg>