<svg width="71" height="61" viewBox="0 0 71 61" fill="none" xmlns="http://www.w3.org/2000/svg">
<path fill-rule="evenodd" clip-rule="evenodd" d="M43.1696 0C62.1428 0 71 20.7808 71 39.6912C71 53.3511 56.8748 61 43.1696 61C24.3567 61 0 58.442 0 39.6912C0 16.8307 20.2333 0 43.1696 0Z" fill="#D6E6F6"/>
<circle cx="25.5" cy="21.5" r="3.5" fill="black"/>
<circle cx="46.5" cy="21.5" r="3.5" fill="black"/>
<path d="M59.1411 19C59.088 20.7002 58.8385 22.4578 59.1653 24.1461C59.3387 25.0421 59.6378 26.5018 60.8263 26.5018C61.9305 26.5018 61.5793 24.6097 61.3155 23.9649C60.7419 22.5627 59.2498 21.5813 59.2498 19.9785" stroke="black" stroke-linecap="round"/>
<path d="M30 38.5625C32.7731 37.2709 35.9755 36.4834 39.0037 37.3919C39.6187 37.5764 40.6147 37.9453 41.0126 38.4758" stroke="black" stroke-linecap="round"/>
</svg>
